<mxfile host="app.diagrams.net" agent="Mozilla/5.0 (Windows NT 10.0; Win64; x64) AppleWebKit/537.36 (KHTML, like Gecko) Chrome/137.0.0.0 Safari/537.36" version="27.1.6">
  <diagram name="Page-1" id="-SX3XYkRUBvjnqwR2XxS">
    <mxGraphModel dx="903" dy="459" grid="1" gridSize="10" guides="1" tooltips="1" connect="1" arrows="1" fold="1" page="1" pageScale="1" pageWidth="827" pageHeight="1169" math="0" shadow="0">
      <root>
        <mxCell id="0" />
        <mxCell id="1" parent="0" />
        <mxCell id="cBM9vm6dGrfTXL98NHgH-48" value="&lt;p style=&quot;margin:0px;margin-top:4px;text-align:center;&quot;&gt;&lt;font style=&quot;font-size: 16px;&quot;&gt;AdministraveStaff&lt;/font&gt;&lt;/p&gt;&lt;hr size=&quot;1&quot; style=&quot;border-style:solid;&quot;&gt;&lt;p style=&quot;margin:0px;margin-left:4px;&quot;&gt;qualification&lt;/p&gt;&lt;p style=&quot;margin:0px;margin-left:4px;&quot;&gt;&lt;/p&gt;&lt;p style=&quot;margin:0px;margin-left:4px;&quot;&gt;&lt;span style=&quot;background-color: transparent; color: light-dark(rgb(0, 0, 0), rgb(255, 255, 255));&quot;&gt;employeeNumber&lt;/span&gt;&lt;/p&gt;" style="verticalAlign=top;align=left;overflow=fill;html=1;whiteSpace=wrap;" parent="1" vertex="1">
          <mxGeometry x="430" y="90" width="160" height="70" as="geometry" />
        </mxCell>
        <mxCell id="I9Kc2uYFHGz0Ubst3NCj-1" value="&lt;p style=&quot;margin:0px;margin-top:4px;text-align:center;&quot;&gt;&lt;font style=&quot;font-size: 16px;&quot;&gt;TechnicalStaff&lt;/font&gt;&lt;/p&gt;&lt;hr size=&quot;1&quot; style=&quot;border-style:solid;&quot;&gt;&lt;p style=&quot;margin:0px;margin-left:4px;&quot;&gt;skill&lt;/p&gt;&lt;p style=&quot;margin:0px;margin-left:4px;&quot;&gt;availability&lt;/p&gt;&lt;p style=&quot;margin:0px;margin-left:4px;&quot;&gt;employeeNumber&lt;/p&gt;&lt;hr size=&quot;1&quot; style=&quot;border-style:solid;&quot;&gt;&lt;p style=&quot;margin:0px;margin-left:4px;&quot;&gt;+ method(): Type&lt;/p&gt;" style="verticalAlign=top;align=left;overflow=fill;html=1;whiteSpace=wrap;" parent="1" vertex="1">
          <mxGeometry x="40" y="90" width="160" height="80" as="geometry" />
        </mxCell>
        <mxCell id="I9Kc2uYFHGz0Ubst3NCj-3" value="&lt;p style=&quot;margin:0px;margin-top:4px;text-align:center;&quot;&gt;&lt;font style=&quot;font-size: 16px;&quot;&gt;Employee&lt;/font&gt;&lt;/p&gt;&lt;hr size=&quot;1&quot; style=&quot;border-style:solid;&quot;&gt;&lt;p style=&quot;margin:0px;margin-left:4px;&quot;&gt;&lt;font style=&quot;font-size: 12px;&quot;&gt;name&lt;/font&gt;&lt;/p&gt;&lt;p style=&quot;margin:0px;margin-left:4px;&quot;&gt;&lt;font style=&quot;font-size: 12px;&quot;&gt;startDate&lt;/font&gt;&lt;/p&gt;&lt;p style=&quot;margin:0px;margin-left:4px;&quot;&gt;&lt;font style=&quot;font-size: 12px;&quot;&gt;employeeNumber&lt;/font&gt;&lt;/p&gt;" style="verticalAlign=top;align=left;overflow=fill;html=1;whiteSpace=wrap;" parent="1" vertex="1">
          <mxGeometry x="230" y="20" width="160" height="90" as="geometry" />
        </mxCell>
        <mxCell id="I9Kc2uYFHGz0Ubst3NCj-4" value="&lt;p style=&quot;margin:0px;margin-top:4px;text-align:center;&quot;&gt;&lt;font style=&quot;font-size: 16px;&quot;&gt;Campaign&lt;/font&gt;&lt;/p&gt;&lt;hr size=&quot;1&quot; style=&quot;border-style:solid;&quot;&gt;&lt;p style=&quot;margin:0px;margin-left:4px;&quot;&gt;&lt;span style=&quot;background-color: transparent; color: light-dark(rgb(0, 0, 0), rgb(255, 255, 255));&quot;&gt;title&lt;/span&gt;&lt;/p&gt;&lt;p style=&quot;margin:0px;margin-left:4px;&quot;&gt;requirements&lt;span style=&quot;background-color: transparent; color: light-dark(rgb(0, 0, 0), rgb(255, 255, 255));&quot;&gt;&lt;/span&gt;&lt;/p&gt;&lt;p style=&quot;margin:0px;margin-left:4px;&quot;&gt;startDate&lt;/p&gt;&lt;p style=&quot;margin:0px;margin-left:4px;&quot;&gt;endDate&lt;/p&gt;&lt;p style=&quot;margin:0px;margin-left:4px;&quot;&gt;budgetCost&lt;/p&gt;" style="verticalAlign=top;align=left;overflow=fill;html=1;whiteSpace=wrap;" parent="1" vertex="1">
          <mxGeometry x="230" y="220" width="160" height="110" as="geometry" />
        </mxCell>
        <mxCell id="I9Kc2uYFHGz0Ubst3NCj-6" value="&lt;p style=&quot;margin:0px;margin-top:4px;text-align:center;&quot;&gt;&lt;font style=&quot;font-size: 16px;&quot;&gt;Customer&lt;/font&gt;&lt;/p&gt;&lt;hr size=&quot;1&quot; style=&quot;border-style:solid;&quot;&gt;&lt;p style=&quot;margin:0px;margin-left:4px;&quot;&gt;&lt;span style=&quot;background-color: transparent; color: light-dark(rgb(0, 0, 0), rgb(255, 255, 255));&quot;&gt;companyName&lt;/span&gt;&lt;/p&gt;&lt;p style=&quot;margin:0px;margin-left:4px;&quot;&gt;&lt;span style=&quot;background-color: transparent; color: light-dark(rgb(0, 0, 0), rgb(255, 255, 255));&quot;&gt;address&lt;/span&gt;&lt;/p&gt;&lt;p style=&quot;margin:0px;margin-left:4px;&quot;&gt;&lt;span style=&quot;background-color: transparent; color: light-dark(rgb(0, 0, 0), rgb(255, 255, 255));&quot;&gt;faxNumber&lt;/span&gt;&lt;/p&gt;&lt;p style=&quot;margin:0px;margin-left:4px;&quot;&gt;contactPerson&lt;/p&gt;" style="verticalAlign=top;align=left;overflow=fill;html=1;whiteSpace=wrap;" parent="1" vertex="1">
          <mxGeometry x="30" y="220" width="160" height="100" as="geometry" />
        </mxCell>
        <mxCell id="8UslPl9s7fDLGYygDgVH-1" value="&lt;p style=&quot;margin:0px;margin-top:4px;text-align:center;&quot;&gt;&lt;span style=&quot;background-color: transparent; color: light-dark(rgb(0, 0, 0), rgb(255, 255, 255));&quot;&gt;&lt;font style=&quot;font-size: 16px;&quot;&gt;WebsiteAdvertisements&lt;/font&gt;&lt;/span&gt;&lt;/p&gt;&lt;hr size=&quot;1&quot; style=&quot;border-style:solid;&quot;&gt;&lt;p style=&quot;margin:0px;margin-left:4px;&quot;&gt;websiteProvider&lt;/p&gt;&lt;p style=&quot;margin:0px;margin-left:4px;&quot;&gt;startDate&lt;/p&gt;&lt;p style=&quot;margin:0px;margin-left:4px;&quot;&gt;endDate&lt;/p&gt;&lt;p style=&quot;margin:0px;margin-left:4px;&quot;&gt;advertisementId&lt;/p&gt;" style="verticalAlign=top;align=left;overflow=fill;html=1;whiteSpace=wrap;" vertex="1" parent="1">
          <mxGeometry x="580" y="360" width="190" height="100" as="geometry" />
        </mxCell>
        <mxCell id="8UslPl9s7fDLGYygDgVH-3" value="&lt;p style=&quot;margin:0px;margin-top:4px;text-align:center;&quot;&gt;&lt;font style=&quot;font-size: 16px;&quot;&gt;Advertisements&lt;/font&gt;&lt;/p&gt;&lt;hr size=&quot;1&quot; style=&quot;border-style:solid;&quot;&gt;&lt;p style=&quot;margin:0px;margin-left:4px;&quot;&gt;title&lt;/p&gt;&lt;p style=&quot;margin:0px;margin-left:4px;&quot;&gt;targetDate&lt;/p&gt;&lt;p style=&quot;margin:0px;margin-left:4px;&quot;&gt;estimatedCost&lt;/p&gt;&lt;p style=&quot;margin:0px;margin-left:4px;&quot;&gt;actualCost&lt;/p&gt;" style="verticalAlign=top;align=left;overflow=fill;html=1;whiteSpace=wrap;" vertex="1" parent="1">
          <mxGeometry x="470" y="220" width="160" height="100" as="geometry" />
        </mxCell>
        <mxCell id="8UslPl9s7fDLGYygDgVH-4" value="&lt;p style=&quot;margin:0px;margin-top:4px;text-align:center;&quot;&gt;&lt;font style=&quot;font-size: 16px;&quot;&gt;NewspaperAdvertisements&lt;/font&gt;&lt;/p&gt;&lt;hr size=&quot;1&quot; style=&quot;border-style:solid;&quot;&gt;&lt;p style=&quot;margin:0px;margin-left:4px;&quot;&gt;newspaperName&lt;/p&gt;&lt;p style=&quot;margin:0px;margin-left:4px;&quot;&gt;placementDate&lt;/p&gt;&lt;p style=&quot;margin:0px;margin-left:4px;&quot;&gt;repeatDates&lt;/p&gt;" style="verticalAlign=top;align=left;overflow=fill;html=1;whiteSpace=wrap;" vertex="1" parent="1">
          <mxGeometry x="260" y="360" width="220" height="90" as="geometry" />
        </mxCell>
        <mxCell id="8UslPl9s7fDLGYygDgVH-5" value="" style="endArrow=none;html=1;rounded=0;exitX=0;exitY=0.75;exitDx=0;exitDy=0;" edge="1" parent="1" source="cBM9vm6dGrfTXL98NHgH-48">
          <mxGeometry width="50" height="50" relative="1" as="geometry">
            <mxPoint x="380" y="180" as="sourcePoint" />
            <mxPoint x="350" y="110" as="targetPoint" />
            <Array as="points">
              <mxPoint x="350" y="143" />
            </Array>
          </mxGeometry>
        </mxCell>
        <mxCell id="8UslPl9s7fDLGYygDgVH-6" value="" style="endArrow=none;html=1;rounded=0;" edge="1" parent="1">
          <mxGeometry width="50" height="50" relative="1" as="geometry">
            <mxPoint x="200" y="143" as="sourcePoint" />
            <mxPoint x="250" y="110" as="targetPoint" />
            <Array as="points">
              <mxPoint x="250" y="143" />
            </Array>
          </mxGeometry>
        </mxCell>
        <mxCell id="8UslPl9s7fDLGYygDgVH-7" value="" style="endArrow=none;html=1;rounded=0;" edge="1" parent="1">
          <mxGeometry width="50" height="50" relative="1" as="geometry">
            <mxPoint x="92" y="220" as="sourcePoint" />
            <mxPoint x="92" y="170" as="targetPoint" />
            <Array as="points">
              <mxPoint x="92" y="200" />
            </Array>
          </mxGeometry>
        </mxCell>
        <mxCell id="8UslPl9s7fDLGYygDgVH-8" value="" style="endArrow=none;html=1;rounded=0;" edge="1" parent="1">
          <mxGeometry width="50" height="50" relative="1" as="geometry">
            <mxPoint x="320" y="220" as="sourcePoint" />
            <mxPoint x="519" y="160" as="targetPoint" />
            <Array as="points">
              <mxPoint x="320" y="190" />
              <mxPoint x="519" y="190" />
            </Array>
          </mxGeometry>
        </mxCell>
        <mxCell id="8UslPl9s7fDLGYygDgVH-9" value="" style="endArrow=none;html=1;rounded=0;" edge="1" parent="1">
          <mxGeometry width="50" height="50" relative="1" as="geometry">
            <mxPoint x="480" y="399" as="sourcePoint" />
            <mxPoint x="520" y="320" as="targetPoint" />
            <Array as="points">
              <mxPoint x="520" y="400" />
            </Array>
          </mxGeometry>
        </mxCell>
        <mxCell id="8UslPl9s7fDLGYygDgVH-10" value="" style="endArrow=none;html=1;rounded=0;" edge="1" parent="1">
          <mxGeometry width="50" height="50" relative="1" as="geometry">
            <mxPoint x="580" y="400" as="sourcePoint" />
            <mxPoint x="550" y="320" as="targetPoint" />
            <Array as="points">
              <mxPoint x="550" y="400" />
            </Array>
          </mxGeometry>
        </mxCell>
        <mxCell id="8UslPl9s7fDLGYygDgVH-11" value="" style="endArrow=none;html=1;rounded=0;exitX=1;exitY=0.75;exitDx=0;exitDy=0;entryX=-0.006;entryY=0.673;entryDx=0;entryDy=0;entryPerimeter=0;" edge="1" parent="1" source="I9Kc2uYFHGz0Ubst3NCj-6" target="I9Kc2uYFHGz0Ubst3NCj-4">
          <mxGeometry width="50" height="50" relative="1" as="geometry">
            <mxPoint x="450" y="350" as="sourcePoint" />
            <mxPoint x="500" y="300" as="targetPoint" />
          </mxGeometry>
        </mxCell>
        <mxCell id="8UslPl9s7fDLGYygDgVH-12" value="" style="endArrow=none;html=1;rounded=0;" edge="1" parent="1">
          <mxGeometry width="50" height="50" relative="1" as="geometry">
            <mxPoint x="390" y="260" as="sourcePoint" />
            <mxPoint x="470" y="280" as="targetPoint" />
            <Array as="points">
              <mxPoint x="420" y="260" />
              <mxPoint x="420" y="280" />
            </Array>
          </mxGeometry>
        </mxCell>
      </root>
    </mxGraphModel>
  </diagram>
</mxfile>
